# xmcd
#
# Track frame offsets:
# 150
# 24156
# 47252
# 73955
# 100515
# 116923
# 136115
# 161890
# 184013
#
# Disc length: 2697 seconds
#
# Revision: 0
# Processed by: cddbd v1.4PL0 Copyright (c) Steve Scherf et al.
# Submitted via: Audion 3.0.1 (http://www.panic.com/audion/)
#
DISCID=700a8709
DTITLE=AC/DC - High Voltage
DYEAR=1900
DGENRE=
TTITLE0=It's a long way to the top
TTITLE1=Rock'n roll singer
TTITLE2=The Jack
TTITLE3=Live Wire
TTITLE4=T.N.T
TTITLE5=Can I site next to your girl
TTITLE6=Little Lover
TTITLE7=She's got Balls
TTITLE8=High Voltage
EXTD=
EXTT0=
EXTT1=
EXTT2=
EXTT3=
EXTT4=
EXTT5=
EXTT6=
EXTT7=
EXTT8=
PLAYORDER=
